<svg width="18" height="17" viewBox="0 0 18 17" fill="none" xmlns="http://www.w3.org/2000/svg">
<path fill-rule="evenodd" clip-rule="evenodd" d="M0.329658 0.841218C0.509194 0.726345 0.734892 0.710884 0.928415 0.800203L6.09258 3.18366L11.6703 0.793212C11.833 0.723476 12.0177 0.726016 12.1784 0.800203L17.5951 3.3002C17.8164 3.40236 17.9582 3.6239 17.9582 3.86768V16.3677C17.9582 16.5808 17.8496 16.7793 17.67 16.8941C17.4905 17.009 17.2648 17.0245 17.0713 16.9352L11.9071 14.5517L6.32937 16.9421C6.16665 17.0119 5.982 17.0093 5.82126 16.9352L0.404593 14.4352C0.183249 14.333 0.0415039 14.1115 0.0415039 13.8677V1.36768C0.0415039 1.15454 0.150122 0.95609 0.329658 0.841218ZM11.9071 2.05169L6.32937 4.44214C6.16665 4.51188 5.982 4.50934 5.82126 4.43515L1.2915 2.3445V13.4678L6.09258 15.6837L11.6703 13.2932C11.833 13.2235 12.0177 13.226 12.1784 13.3002L16.7082 15.3909V4.26757L11.9071 2.05169Z" fill="#222222"/>
<path fill-rule="evenodd" clip-rule="evenodd" d="M11.9165 0.742676C12.2617 0.742676 12.5415 1.0225 12.5415 1.36768V13.8677C12.5415 14.2129 12.2617 14.4927 11.9165 14.4927C11.5713 14.4927 11.2915 14.2129 11.2915 13.8677V1.36768C11.2915 1.0225 11.5713 0.742676 11.9165 0.742676Z" fill="#222222"/>
<path fill-rule="evenodd" clip-rule="evenodd" d="M6.08317 3.24268C6.42835 3.24268 6.70817 3.5225 6.70817 3.86768V16.3677C6.70817 16.7129 6.42835 16.9927 6.08317 16.9927C5.73799 16.9927 5.45817 16.7129 5.45817 16.3677V3.86768C5.45817 3.5225 5.73799 3.24268 6.08317 3.24268Z" fill="#222222"/>
<path fill-rule="evenodd" clip-rule="evenodd" d="M11.6703 0.793212C11.833 0.723476 12.0177 0.726016 12.1784 0.800203L14.8869 2.0502C15.2003 2.19485 15.3371 2.56618 15.1925 2.87959C15.0478 3.19299 14.6765 3.3298 14.3631 3.18515L11.9071 2.05169L6.32937 4.44214C6.16665 4.51188 5.982 4.50934 5.82126 4.43515L3.11308 3.18515C2.79967 3.0405 2.66286 2.66917 2.80751 2.35576C2.95216 2.04236 3.32349 1.90555 3.6369 2.0502L6.09258 3.18366L11.6703 0.793212Z" fill="#222222"/>
<path fill-rule="evenodd" clip-rule="evenodd" d="M11.6703 13.2932C11.833 13.2235 12.0177 13.226 12.1784 13.3002L14.8869 14.5502C15.2003 14.6949 15.3371 15.0662 15.1925 15.3796C15.0478 15.693 14.6765 15.8298 14.3631 15.6852L11.9071 14.5517L6.32937 16.9421C6.16665 17.0119 5.982 17.0093 5.82126 16.9352L3.11308 15.6852C2.79967 15.5405 2.66286 15.1692 2.80751 14.8558C2.95216 14.5424 3.32349 14.4056 3.6369 14.5502L6.09258 15.6837L11.6703 13.2932Z" fill="#222222"/>
</svg>
